{
    "asset" : {
        "generator" : "Khronos glTF Blender I/O v1.6.16",
        "version" : "2.0"
    },
    "extensionsUsed" : [
        "KHR_materials_unlit"
    ],
    "scene" : 0,
    "scenes" : [
        {
            "name" : "Scene",
            "nodes" : [
                0,
                1,
                3,
                5
            ]
        }
    ],
    "nodes" : [
        {
            "mesh" : 0,
            "name" : "g_bell",
            "rotation" : [
                0.4761229157447815,
                0.4672311842441559,
                0.4991629123687744,
                0.553026556968689
            ],
            "scale" : [
                0.00041788816452026367,
                0.00041788816452026367,
                0.00041788816452026367
            ],
            "translation" : [
                0.007763046305626631,
                0.0018638626206666231,
                -0.028485791757702827
            ]
        },
        {
            "mesh" : 1,
            "name" : "newlayout",
            "rotation" : [
                0.4761229157447815,
                0.4672311842441559,
                0.4991629123687744,
                0.553026556968689
            ],
            "scale" : [
                0.00041788816452026367,
                0.00041788816452026367,
                0.00041788816452026367
            ],
            "translation" : [
                0.007763046305626631,
                0.0018638626206666231,
                -0.028485791757702827
            ]
        },
        {
            "mesh" : 2,
            "name" : "g_pillow"
        },
        {
            "children" : [
                2
            ],
            "name" : "pillow",
            "rotation" : [
                0.3102785348892212,
                0.6734724640846252,
                0.6076520681381226,
                0.2844665050506592
            ],
            "scale" : [
                7.005938095971942e-05,
                4.137017822358757e-05,
                7.005939551163465e-05
            ],
            "translation" : [
                0.007584282662719488,
                0.002520043170079589,
                -0.02761116810142994
            ]
        },
        {
            "mesh" : 3,
            "name" : "g_coin"
        },
        {
            "children" : [
                4
            ],
            "name" : "coin",
            "rotation" : [
                -0.7229777574539185,
                -0.6854825615882874,
                -0.08595047146081924,
                0.005414287559688091
            ],
            "scale" : [
                0.00207387562841177,
                0.0008998416597023606,
                0.0034296540543437004
            ],
            "translation" : [
                0.011661892756819725,
                0.0009725129930302501,
                -0.022433994337916374
            ]
        }
    ],
    "materials" : [
        {
            "doubleSided" : true,
            "extensions" : {
                "KHR_materials_unlit" : {}
            },
            "name" : "mtr_bell",
            "pbrMetallicRoughness" : {
                "baseColorFactor" : [
                    0.710099995136261,
                    0.5454999804496765,
                    0.13920000195503235,
                    1
                ],
                "metallicFactor" : 0,
                "roughnessFactor" : 0.9
            }
        },
        {
            "doubleSided" : true,
            "extensions" : {
                "KHR_materials_unlit" : {}
            },
            "name" : "mtr_lootbag",
            "pbrMetallicRoughness" : {
                "baseColorTexture" : {
                    "index" : 0
                },
                "metallicFactor" : 0,
                "roughnessFactor" : 0.9
            }
        },
        {
            "doubleSided" : true,
            "extensions" : {
                "KHR_materials_unlit" : {}
            },
            "name" : "mtr_pillow",
            "pbrMetallicRoughness" : {
                "baseColorTexture" : {
                    "index" : 1
                },
                "metallicFactor" : 0,
                "roughnessFactor" : 0.9
            }
        },
        {
            "doubleSided" : true,
            "extensions" : {
                "KHR_materials_unlit" : {}
            },
            "name" : "mtr_coin",
            "pbrMetallicRoughness" : {
                "baseColorTexture" : {
                    "index" : 2
                },
                "metallicFactor" : 0,
                "roughnessFactor" : 0.9
            }
        }
    ],
    "meshes" : [
        {
            "name" : "g_bell",
            "primitives" : [
                {
                    "attributes" : {
                        "POSITION" : 0,
                        "NORMAL" : 1,
                        "TEXCOORD_0" : 2
                    },
                    "indices" : 3,
                    "material" : 0
                }
            ]
        },
        {
            "name" : "g_charm",
            "primitives" : [
                {
                    "attributes" : {
                        "POSITION" : 4,
                        "NORMAL" : 5,
                        "TEXCOORD_0" : 6,
                        "TEXCOORD_1" : 7
                    },
                    "indices" : 8,
                    "material" : 1
                }
            ]
        },
        {
            "name" : "g_pillow",
            "primitives" : [
                {
                    "attributes" : {
                        "POSITION" : 9,
                        "NORMAL" : 10,
                        "TEXCOORD_0" : 11
                    },
                    "indices" : 12,
                    "material" : 2
                }
            ]
        },
        {
            "name" : "g_coin",
            "primitives" : [
                {
                    "attributes" : {
                        "POSITION" : 13,
                        "NORMAL" : 14,
                        "TEXCOORD_0" : 15
                    },
                    "indices" : 16,
                    "material" : 3
                }
            ]
        }
    ],
    "textures" : [
        {
            "sampler" : 0,
            "source" : 0
        },
        {
            "sampler" : 0,
            "source" : 1
        },
        {
            "sampler" : 0,
            "source" : 2
        }
    ],
    "images" : [
        {
            "bufferView" : 9,
            "mimeType" : "image/jpeg",
            "name" : "lambert2_baseColor"
        },
        {
            "bufferView" : 14,
            "mimeType" : "image/png",
            "name" : "RedMat_baseColor"
        },
        {
            "bufferView" : 19,
            "mimeType" : "image/png",
            "name" : "bigCoin1_baseColor"
        }
    ],
    "accessors" : [
        {
            "bufferView" : 0,
            "componentType" : 5126,
            "count" : 75,
            "max" : [
                2.489539384841919,
                34.95114517211914,
                10.79830551147461
            ],
            "min" : [
                -2.866482734680176,
                30.29738998413086,
                5.577277183532715
            ],
            "type" : "VEC3"
        },
        {
            "bufferView" : 1,
            "componentType" : 5126,
            "count" : 75,
            "type" : "VEC3"
        },
        {
            "bufferView" : 2,
            "componentType" : 5126,
            "count" : 75,
            "type" : "VEC2"
        },
        {
            "bufferView" : 3,
            "componentType" : 5123,
            "count" : 258,
            "type" : "SCALAR"
        },
        {
            "bufferView" : 4,
            "componentType" : 5126,
            "count" : 1119,
            "max" : [
                17.36583709716797,
                55.927181243896484,
                14.55572509765625
            ],
            "min" : [
                -17.78667640686035,
                0.7846469879150391,
                -26.100740432739258
            ],
            "type" : "VEC3"
        },
        {
            "bufferView" : 5,
            "componentType" : 5126,
            "count" : 1119,
            "type" : "VEC3"
        },
        {
            "bufferView" : 6,
            "componentType" : 5126,
            "count" : 1119,
            "type" : "VEC2"
        },
        {
            "bufferView" : 7,
            "componentType" : 5126,
            "count" : 1119,
            "type" : "VEC2"
        },
        {
            "bufferView" : 8,
            "componentType" : 5123,
            "count" : 5016,
            "type" : "SCALAR"
        },
        {
            "bufferView" : 10,
            "componentType" : 5126,
            "count" : 2135,
            "max" : [
                94.12970733642578,
                60.781551361083984,
                96.70237731933594
            ],
            "min" : [
                -97.34147644042969,
                -40.698326110839844,
                -95.64313507080078
            ],
            "type" : "VEC3"
        },
        {
            "bufferView" : 11,
            "componentType" : 5126,
            "count" : 2135,
            "type" : "VEC3"
        },
        {
            "bufferView" : 12,
            "componentType" : 5126,
            "count" : 2135,
            "type" : "VEC2"
        },
        {
            "bufferView" : 13,
            "componentType" : 5123,
            "count" : 10980,
            "type" : "SCALAR"
        },
        {
            "bufferView" : 15,
            "componentType" : 5126,
            "count" : 419,
            "max" : [
                0.9834570288658142,
                0.9999992847442627,
                0.9749279618263245
            ],
            "min" : [
                -0.9834569692611694,
                -1.0000004768371582,
                -0.9749281406402588
            ],
            "type" : "VEC3"
        },
        {
            "bufferView" : 16,
            "componentType" : 5126,
            "count" : 419,
            "type" : "VEC3"
        },
        {
            "bufferView" : 17,
            "componentType" : 5126,
            "count" : 419,
            "type" : "VEC2"
        },
        {
            "bufferView" : 18,
            "componentType" : 5123,
            "count" : 828,
            "type" : "SCALAR"
        }
    ],
    "bufferViews" : [
        {
            "buffer" : 0,
            "byteLength" : 900,
            "byteOffset" : 0
        },
        {
            "buffer" : 0,
            "byteLength" : 900,
            "byteOffset" : 900
        },
        {
            "buffer" : 0,
            "byteLength" : 600,
            "byteOffset" : 1800
        },
        {
            "buffer" : 0,
            "byteLength" : 516,
            "byteOffset" : 2400
        },
        {
            "buffer" : 0,
            "byteLength" : 13428,
            "byteOffset" : 2916
        },
        {
            "buffer" : 0,
            "byteLength" : 13428,
            "byteOffset" : 16344
        },
        {
            "buffer" : 0,
            "byteLength" : 8952,
            "byteOffset" : 29772
        },
        {
            "buffer" : 0,
            "byteLength" : 8952,
            "byteOffset" : 38724
        },
        {
            "buffer" : 0,
            "byteLength" : 10032,
            "byteOffset" : 47676
        },
        {
            "buffer" : 0,
            "byteLength" : 292137,
            "byteOffset" : 57708
        },
        {
            "buffer" : 0,
            "byteLength" : 25620,
            "byteOffset" : 349848
        },
        {
            "buffer" : 0,
            "byteLength" : 25620,
            "byteOffset" : 375468
        },
        {
            "buffer" : 0,
            "byteLength" : 17080,
            "byteOffset" : 401088
        },
        {
            "buffer" : 0,
            "byteLength" : 21960,
            "byteOffset" : 418168
        },
        {
            "buffer" : 0,
            "byteLength" : 1785079,
            "byteOffset" : 440128
        },
        {
            "buffer" : 0,
            "byteLength" : 5028,
            "byteOffset" : 2225208
        },
        {
            "buffer" : 0,
            "byteLength" : 5028,
            "byteOffset" : 2230236
        },
        {
            "buffer" : 0,
            "byteLength" : 3352,
            "byteOffset" : 2235264
        },
        {
            "buffer" : 0,
            "byteLength" : 1656,
            "byteOffset" : 2238616
        },
        {
            "buffer" : 0,
            "byteLength" : 35388,
            "byteOffset" : 2240272
        }
    ],
    "samplers" : [
        {
            "magFilter" : 9729,
            "minFilter" : 9987
        }
    ],
    "buffers" : [
        {
            "byteLength" : 2275660,
            "uri" : "data:application/octet-stream;base64,"
        }
    ]
}
